<?xml version="1.0" standalone="no"?>
<!DOCTYPE svg PUBLIC "-//W3C//DTD SVG 20010904//EN"
 "http://www.w3.org/TR/2001/REC-SVG-20010904/DTD/svg10.dtd">
<svg version="1.0" xmlns="http://www.w3.org/2000/svg"
 width="256.000000pt" height="256.000000pt" viewBox="0 0 256.000000 256.000000"
 preserveAspectRatio="xMidYMid meet">

<g transform="translate(0.000000,256.000000) scale(0.100000,-0.100000)"
fill="#000000" stroke="none">
<path d="M1124 2545 c-214 -46 -402 -229 -459 -445 -20 -73 -19 -236 1 -314
42 -163 172 -321 325 -394 106 -51 182 -66 307 -60 163 8 286 64 403 183 185
188 229 465 112 704 -52 105 -169 223 -273 274 -128 63 -279 82 -416 52z"/>
<path d="M630 1301 c-136 -44 -229 -123 -297 -256 -99 -191 -149 -525 -108
-719 34 -161 153 -275 324 -312 97 -20 1365 -20 1462 0 88 19 141 47 207 110
96 91 125 174 124 356 -3 374 -119 665 -308 776 -61 36 -159 64 -222 64 -56 0
-101 -18 -180 -72 -66 -45 -180 -95 -249 -108 -83 -16 -202 -8 -283 19 -61 21
-90 36 -234 125 -52 31 -68 36 -120 35 -34 0 -86 -8 -116 -18z"/>
</g>
</svg>
